#Comment line ignore any data following # character 
#Hierarchical Translation and Rotation (.htr) file 
[Header]	
#Header keywords are followed by a single value 
FileType HTR		#Single word string
DataType HTRS		#Translation followed by rotation and scale data
FileVersion 1		#integer
NumSegments 84		#integer
NumFrames 2		#integer
DataFrameRate 30		#integer, data frame rate in this file
EulerRotationOrder ZYX
CalibrationUnits mm
RotationUnits Degrees
GlobalAxisofGravity Y
BoneLengthAxis Y
ScaleFactor 1.00
[SegmentNames&Hierarchy]
#CHILD	PARENT
MASTER GLOBAL
root MASTER
chest root
L_mid_tent01 root
R_mid_tent01 root
spine01 root
Bip01_Neck chest
L_humerus chest
R_humerus chest
weapon_bone chest
Bip01_Head Bip01_Neck
eye_left_bone Bip01_Head
eye_right_bone Bip01_Head
L_forearm L_humerus
L_front_hand L_forearm
L_weapon_bone L_forearm
L_front_hand01_01 L_front_hand
L_front_hand02_01 L_front_hand
L_front_hand03_01 L_front_hand
L_front_hand01_02 L_front_hand01_01
L_front_hand02_02 L_front_hand02_01
L_front_hand03_02 L_front_hand03_01
R_forearm R_humerus
R_front_hand R_forearm
R_weapon_bone R_forearm
R_front_hand01_01 R_front_hand
R_front_hand02_01 R_front_hand
R_front_hand03_01 R_front_hand
R_front_hand01_02 R_front_hand01_01
R_front_hand02_02 R_front_hand02_01
R_front_hand03_02 R_front_hand03_01
null_rope01_connect L_mid_tent01
Rope1_Seg01 null_rope01_connect
Rope1_Seg02 Rope1_Seg01
Rope1_Seg03 Rope1_Seg02
Rope1_Seg04 Rope1_Seg03
Rope1_Seg05 Rope1_Seg04
Rope1_Seg06 Rope1_Seg05
Rope1_Seg07 Rope1_Seg06
Rope1_Seg09 Rope1_Seg07
L_mid_hand01 Rope1_Seg09
L_mid_hand02 Rope1_Seg09
L_mid_hand03 Rope1_Seg09
null_rope02_connect R_mid_tent01
Rope2_Seg01 null_rope02_connect
Rope2_Seg02 Rope2_Seg01
Rope2_Seg03 Rope2_Seg02
Rope2_Seg04 Rope2_Seg03
Rope2_Seg05 Rope2_Seg04
Rope2_Seg06 Rope2_Seg05
Rope2_Seg07 Rope2_Seg06
Rope2_Seg09 Rope2_Seg07
R_mid_hand01 Rope2_Seg09
R_mid_hand02 Rope2_Seg09
R_mid_hand03 Rope2_Seg09
spine02 spine01
spine03 spine02
pelvis spine03
null_rope03_connect pelvis
null_rope04_connect pelvis
Rope3_Seg01 null_rope03_connect
Rope3_Seg02 Rope3_Seg01
Rope3_Seg03 Rope3_Seg02
Rope3_Seg04 Rope3_Seg03
Rope3_Seg05 Rope3_Seg04
Rope3_Seg06 Rope3_Seg05
Rope3_Seg07 Rope3_Seg06
Rope3_Seg08 Rope3_Seg07
Rope3_Seg09 Rope3_Seg08
R_rear_hand01 Rope3_Seg09
R_rear_hand02 Rope3_Seg09
R_rear_hand03 Rope3_Seg09
Rope4_Seg01 null_rope04_connect
Rope4_Seg02 Rope4_Seg01
Rope4_Seg03 Rope4_Seg02
Rope4_Seg04 Rope4_Seg03
Rope4_Seg05 Rope4_Seg04
Rope4_Seg06 Rope4_Seg05
Rope4_Seg07 Rope4_Seg06
Rope4_Seg08 Rope4_Seg07
Rope4_Seg09 Rope4_Seg08
L_rear_hand01 Rope4_Seg09
L_rear_hand02 Rope4_Seg09
L_rear_hand03 Rope4_Seg09
[BasePosition]
#SegmentName Tx, Ty, Tz, Rx, Ry, Rz, BoneLength
MASTER 0.000000 0.000000 0.000000 -90.000000 0.000000 0.000000 10.000000 
root 0.000000 0.000000 0.000000 0.000000 0.000000 0.000000 10.000000 
chest 0.000000 0.000000 0.000000 0.000000 0.000000 0.000000 10.000000 
L_mid_tent01 0.000000 0.000000 0.000000 0.000000 0.000000 0.000000 10.000000 
R_mid_tent01 0.000000 0.000000 0.000000 0.000000 0.000000 0.000000 10.000000 
spine01 0.000000 0.000000 0.000000 0.000000 0.000000 0.000000 10.000000 
Bip01_Neck 0.000000 0.000000 0.000000 0.000000 0.000000 0.000000 10.000000 
L_humerus 0.000000 0.000000 0.000000 0.000000 0.000000 0.000000 10.000000 
R_humerus 0.000000 0.000000 0.000000 0.000000 0.000000 0.000000 10.000000 
weapon_bone 0.000000 0.000000 0.000000 0.000000 0.000000 0.000000 10.000000 
Bip01_Head 0.000000 0.000000 0.000000 0.000000 0.000000 0.000000 10.000000 
eye_left_bone 0.000000 0.000000 0.000000 0.000000 0.000000 0.000000 10.000000 
eye_right_bone 0.000000 0.000000 0.000000 0.000000 0.000000 0.000000 10.000000 
L_forearm 0.000000 0.000000 0.000000 0.000000 0.000000 0.000000 10.000000 
L_front_hand 0.000000 0.000000 0.000000 0.000000 0.000000 0.000000 10.000000 
L_weapon_bone 0.000000 0.000000 0.000000 0.000000 0.000000 0.000000 10.000000 
L_front_hand01_01 0.000000 0.000000 0.000000 0.000000 0.000000 0.000000 10.000000 
L_front_hand02_01 0.000000 0.000000 0.000000 0.000000 0.000000 0.000000 10.000000 
L_front_hand03_01 0.000000 0.000000 0.000000 0.000000 0.000000 0.000000 10.000000 
L_front_hand01_02 0.000000 0.000000 0.000000 0.000000 0.000000 0.000000 10.000000 
L_front_hand02_02 0.000000 0.000000 0.000000 0.000000 0.000000 0.000000 10.000000 
L_front_hand03_02 0.000000 0.000000 0.000000 0.000000 0.000000 0.000000 10.000000 
R_forearm 0.000000 0.000000 0.000000 0.000000 0.000000 0.000000 10.000000 
R_front_hand 0.000000 0.000000 0.000000 0.000000 0.000000 0.000000 10.000000 
R_weapon_bone 0.000000 0.000000 0.000000 0.000000 0.000000 0.000000 10.000000 
R_front_hand01_01 0.000000 0.000000 0.000000 0.000000 0.000000 0.000000 10.000000 
R_front_hand02_01 0.000000 0.000000 0.000000 0.000000 0.000000 0.000000 10.000000 
R_front_hand03_01 0.000000 0.000000 0.000000 0.000000 0.000000 0.000000 10.000000 
R_front_hand01_02 0.000000 0.000000 0.000000 0.000000 0.000000 0.000000 10.000000 
R_front_hand02_02 0.000000 0.000000 0.000000 0.000000 0.000000 0.000000 10.000000 
R_front_hand03_02 0.000000 0.000000 0.000000 0.000000 0.000000 0.000000 10.000000 
null_rope01_connect 0.000000 0.000000 0.000000 0.000000 0.000000 0.000000 10.000000 
Rope1_Seg01 0.000000 0.000000 0.000000 0.000000 0.000000 0.000000 10.000000 
Rope1_Seg02 0.000000 0.000000 0.000000 0.000000 0.000000 0.000000 10.000000 
Rope1_Seg03 0.000000 0.000000 0.000000 0.000000 0.000000 0.000000 10.000000 
Rope1_Seg04 0.000000 0.000000 0.000000 0.000000 0.000000 0.000000 10.000000 
Rope1_Seg05 0.000000 0.000000 0.000000 0.000000 0.000000 0.000000 10.000000 
Rope1_Seg06 0.000000 0.000000 0.000000 0.000000 0.000000 0.000000 10.000000 
Rope1_Seg07 0.000000 0.000000 0.000000 0.000000 0.000000 0.000000 10.000000 
Rope1_Seg09 0.000000 0.000000 0.000000 0.000000 0.000000 0.000000 10.000000 
L_mid_hand01 0.000000 0.000000 0.000000 0.000000 0.000000 0.000000 10.000000 
L_mid_hand02 0.000000 0.000000 0.000000 0.000000 0.000000 0.000000 10.000000 
L_mid_hand03 0.000000 0.000000 0.000000 0.000000 0.000000 0.000000 10.000000 
null_rope02_connect 0.000000 0.000000 0.000000 0.000000 0.000000 0.000000 10.000000 
Rope2_Seg01 0.000000 0.000000 0.000000 0.000000 0.000000 0.000000 10.000000 
Rope2_Seg02 0.000000 0.000000 0.000000 0.000000 0.000000 0.000000 10.000000 
Rope2_Seg03 0.000000 0.000000 0.000000 0.000000 0.000000 0.000000 10.000000 
Rope2_Seg04 0.000000 0.000000 0.000000 0.000000 0.000000 0.000000 10.000000 
Rope2_Seg05 0.000000 0.000000 0.000000 0.000000 0.000000 0.000000 10.000000 
Rope2_Seg06 0.000000 0.000000 0.000000 0.000000 0.000000 0.000000 10.000000 
Rope2_Seg07 0.000000 0.000000 0.000000 0.000000 0.000000 0.000000 10.000000 
Rope2_Seg09 0.000000 0.000000 0.000000 0.000000 0.000000 0.000000 10.000000 
R_mid_hand01 0.000000 0.000000 0.000000 0.000000 0.000000 0.000000 10.000000 
R_mid_hand02 0.000000 0.000000 0.000000 0.000000 0.000000 0.000000 10.000000 
R_mid_hand03 0.000000 0.000000 0.000000 0.000000 0.000000 0.000000 10.000000 
spine02 0.000000 0.000000 0.000000 0.000000 0.000000 0.000000 10.000000 
spine03 0.000000 0.000000 0.000000 0.000000 0.000000 0.000000 10.000000 
pelvis 0.000000 0.000000 0.000000 0.000000 0.000000 0.000000 10.000000 
null_rope03_connect 0.000000 0.000000 0.000000 0.000000 0.000000 0.000000 10.000000 
null_rope04_connect 0.000000 0.000000 0.000000 0.000000 0.000000 0.000000 10.000000 
Rope3_Seg01 0.000000 0.000000 0.000000 0.000000 0.000000 0.000000 10.000000 
Rope3_Seg02 0.000000 0.000000 0.000000 0.000000 0.000000 0.000000 10.000000 
Rope3_Seg03 0.000000 0.000000 0.000000 0.000000 0.000000 0.000000 10.000000 
Rope3_Seg04 0.000000 0.000000 0.000000 0.000000 0.000000 0.000000 10.000000 
Rope3_Seg05 0.000000 0.000000 0.000000 0.000000 0.000000 0.000000 10.000000 
Rope3_Seg06 0.000000 0.000000 0.000000 0.000000 0.000000 0.000000 10.000000 
Rope3_Seg07 0.000000 0.000000 0.000000 0.000000 0.000000 0.000000 10.000000 
Rope3_Seg08 0.000000 0.000000 0.000000 0.000000 0.000000 0.000000 10.000000 
Rope3_Seg09 0.000000 0.000000 0.000000 0.000000 0.000000 0.000000 10.000000 
R_rear_hand01 0.000000 0.000000 0.000000 0.000000 0.000000 0.000000 10.000000 
R_rear_hand02 0.000000 0.000000 0.000000 0.000000 0.000000 0.000000 10.000000 
R_rear_hand03 0.000000 0.000000 0.000000 0.000000 0.000000 0.000000 10.000000 
Rope4_Seg01 0.000000 0.000000 0.000000 0.000000 0.000000 0.000000 10.000000 
Rope4_Seg02 0.000000 0.000000 0.000000 0.000000 0.000000 0.000000 10.000000 
Rope4_Seg03 0.000000 0.000000 0.000000 0.000000 0.000000 0.000000 10.000000 
Rope4_Seg04 0.000000 0.000000 0.000000 0.000000 0.000000 0.000000 10.000000 
Rope4_Seg05 0.000000 0.000000 0.000000 0.000000 0.000000 0.000000 10.000000 
Rope4_Seg06 0.000000 0.000000 0.000000 0.000000 0.000000 0.000000 10.000000 
Rope4_Seg07 0.000000 0.000000 0.000000 0.000000 0.000000 0.000000 10.000000 
Rope4_Seg08 0.000000 0.000000 0.000000 0.000000 0.000000 0.000000 10.000000 
Rope4_Seg09 0.000000 0.000000 0.000000 0.000000 0.000000 0.000000 10.000000 
L_rear_hand01 0.000000 0.000000 0.000000 0.000000 0.000000 0.000000 10.000000 
L_rear_hand02 0.000000 0.000000 0.000000 0.000000 0.000000 0.000000 10.000000 
L_rear_hand03 0.000000 0.000000 0.000000 0.000000 0.000000 0.000000 10.000000 
#Beginning of Data. Separated by tabs
#Fr	Tx	Ty	Tz	Rx	Ry	Rz	SF
[MASTER]
39 941.197388 6488.784668 141.812805 0.001660 0.001660 0.001660 6558.223145
40 790.500977 6688.985840 84.057137 0.001660 0.001660 0.001660 6736.058594
[root]
39 -16.502304 -62.822289 1038.549438 -62.328293 -22.702188 -84.641548 1040.578613
40 -16.502304 -54.870052 1066.696167 -63.108273 -22.671780 -85.587257 1068.233887
[chest]
39 -84.512650 -34.090519 0.000000 1.457246 -8.841154 -171.041412 91.129311
40 -84.512650 -34.090519 0.000000 5.616725 -9.308510 -170.291443 91.129311
[L_mid_tent01]
39 27.298668 22.179258 -249.918701 -10.523408 -4.958226 -24.158928 252.381653
40 27.298658 22.179258 -249.918701 -12.107375 -4.331846 -21.025410 252.381653
[R_mid_tent01]
39 23.228794 24.509907 226.238495 167.987396 -8.143726 75.380089 228.744751
40 23.228794 24.509907 226.238495 170.849380 -21.039762 70.268585 228.744751
[spine01]
39 -0.361383 -0.195265 0.000000 0.001948 0.001309 22.197990 0.410763
40 -0.361383 -0.195265 0.000000 0.001948 0.001310 22.171535 0.410763
[Bip01_Neck]
39 165.484543 71.581718 0.000119 176.643677 -1.657967 43.431911 180.302734
40 165.484543 71.581718 0.000119 176.643677 -1.657967 43.431911 180.302734
[L_humerus]
39 -13.983130 -135.272980 -120.471481 79.776657 54.059780 164.555634 181.680161
40 -13.983130 -135.272980 -120.471481 73.343163 57.153545 158.667847 181.680161
[R_humerus]
39 -13.983309 -135.273102 125.287651 -178.209122 -80.868492 -86.724022 184.909012
40 -13.983309 -135.273102 125.287651 170.910248 -84.780380 -75.799454 184.909012
[weapon_bone]
39 235.964890 -300.705902 0.000000 0.000000 -89.951546 -128.212341 382.234833
40 235.964890 -300.705902 0.000000 0.000000 -89.951546 -128.212341 382.234833
[Bip01_Head]
39 213.439194 185.728760 11.601653 18.223396 6.152122 -43.833614 283.171448
40 213.441406 185.721893 11.689422 15.612423 6.004604 -43.834797 283.172180
[eye_left_bone]
39 -24.626970 125.451866 -64.772606 0.000000 -90.000000 -99.840431 143.318359
40 -24.626970 125.451866 -64.772606 0.000000 -90.000000 -99.840431 143.318359
[eye_right_bone]
39 -24.626970 125.451866 64.327362 0.000000 -89.965736 80.156380 143.117676
40 -24.626970 125.451866 64.327362 0.000000 -89.965736 80.156380 143.117676
[L_forearm]
39 322.776093 0.000000 -0.000119 0.000402 -0.002313 -109.732689 322.776093
40 322.776093 0.000000 -0.000119 0.000401 -0.002313 -109.662155 322.776093
[L_front_hand]
39 241.149185 -0.042021 -3.300071 -178.667953 -1.835447 -27.422350 241.171753
40 241.149185 -0.042021 -3.300071 -178.667953 -1.835447 -27.422350 241.171753
[L_weapon_bone]
39 156.183838 0.000000 0.000000 0.000014 0.000007 0.000001 156.183838
40 156.183838 0.000000 0.000000 0.000014 0.000007 0.000001 156.183838
[L_front_hand01_01]
39 86.095154 20.947098 -0.655860 -0.366594 -0.477154 75.385574 88.609184
40 86.095154 20.947098 -0.655860 -0.366594 -0.477154 75.385574 88.609184
[L_front_hand02_01]
39 86.935165 -11.437475 24.513514 154.399796 -59.883835 -61.369587 91.046425
40 86.935165 -11.437475 24.513514 154.399796 -59.883835 -61.369587 91.046425
[L_front_hand03_01]
39 86.637497 -14.123976 -20.424902 -153.913849 58.118122 -62.702866 90.126129
40 86.637497 -14.123976 -20.424902 -153.913849 58.118122 -62.702866 90.126129
[L_front_hand01_02]
39 71.020905 -0.000179 0.000030 0.000334 -0.002323 -106.376259 71.020905
40 71.020905 -0.000179 0.000030 0.000334 -0.002323 -106.376938 71.020905
[L_front_hand02_02]
39 71.020927 -0.000119 0.000060 0.000334 -0.002323 -106.376259 71.020927
40 71.020927 -0.000119 0.000060 0.000334 -0.002323 -106.376938 71.020927
[L_front_hand03_02]
39 71.020905 -0.000060 0.000060 0.000334 -0.002323 -106.376259 71.020905
40 71.020905 -0.000060 0.000060 0.000334 -0.002323 -106.376938 71.020905
[R_forearm]
39 322.776428 -0.000060 0.000030 0.201920 0.065722 -108.383247 322.776428
40 322.776428 -0.000060 0.000030 0.201959 0.065602 -108.314636 322.776428
[R_front_hand]
39 238.847015 -0.006795 2.210259 -2.635298 -10.645461 -26.312506 238.857239
40 238.847015 -0.006795 2.210259 -2.635298 -10.645461 -26.312506 238.857239
[R_weapon_bone]
39 155.664093 0.002503 -0.000030 0.003487 0.001180 -90.988930 155.664078
40 155.664093 0.002503 -0.000030 0.003487 0.001180 -90.988930 155.664078
[R_front_hand01_01]
39 87.624611 14.231146 22.918642 -154.633499 -59.950619 61.746044 91.683487
40 87.624611 14.231146 22.918642 -154.633499 -59.950619 61.746044 91.683487
[R_front_hand02_01]
39 89.356956 14.367283 -19.491137 154.602661 58.302849 63.744389 92.579636
40 89.356956 14.367283 -19.491137 154.602661 58.302849 63.744389 92.579636
[R_front_hand03_01]
39 87.286232 -22.307278 -0.143439 0.162155 -0.423168 -75.767921 90.091743
40 87.286232 -22.307278 -0.143439 0.162155 -0.423168 -75.767921 90.091743
[R_front_hand01_02]
39 71.020905 0.000060 0.000119 0.002323 -0.000334 106.381714 71.020905
40 71.020905 0.000060 0.000119 0.002323 -0.000334 106.381706 71.020905
[R_front_hand02_02]
39 71.020844 -0.000030 -0.000119 0.002323 -0.000334 106.381714 71.020836
40 71.020844 -0.000030 -0.000119 0.002323 -0.000334 106.381706 71.020836
[R_front_hand03_02]
39 71.020905 0.000000 0.000030 0.002323 -0.000334 106.381714 71.020905
40 71.020905 0.000000 0.000030 0.002323 -0.000334 106.381706 71.020905
[null_rope01_connect]
39 328.732483 0.000000 -0.000238 38.003357 -71.190720 98.656715 328.732483
40 328.732483 0.000000 -0.000238 35.611542 -73.827614 97.954140 328.732483
[Rope1_Seg01]
39 0.000000 0.000000 0.000000 91.306602 11.320374 -85.484009 0.000000
40 0.000000 0.000000 0.000000 83.234253 15.811911 -91.768990 0.000000
[Rope1_Seg02]
39 139.999863 -0.000179 0.000000 5.664494 2.726146 5.968908 139.999863
40 139.999863 -0.000179 0.000000 5.368512 2.073267 6.043857 139.999863
[Rope1_Seg03]
39 139.999924 0.000060 -0.000060 7.455310 2.313098 7.901404 139.999924
40 139.999924 0.000060 -0.000060 7.415929 1.975015 7.868155 139.999924
[Rope1_Seg04]
39 139.999924 -0.000060 -0.000119 8.857825 -6.986179 16.092119 139.999924
40 139.999924 -0.000060 -0.000119 6.285808 -7.667279 14.565004 139.999924
[Rope1_Seg05]
39 139.999832 0.000119 -0.000060 8.167140 24.027563 -11.516386 139.999832
40 139.999832 0.000119 -0.000060 16.146584 26.272379 -5.002016 139.999832
[Rope1_Seg06]
39 139.999954 0.000119 -0.000060 -14.445909 34.301300 -45.612270 139.999954
40 139.999954 0.000119 -0.000060 -11.447553 36.647896 -38.752865 139.999954
[Rope1_Seg07]
39 139.999985 0.000060 0.000000 -1.103085 8.846067 -8.479695 139.999985
40 139.999985 0.000060 0.000000 -1.298703 9.563197 -7.567084 139.999985
[Rope1_Seg09]
39 121.602913 0.000119 -0.000089 -89.793175 -1.359789 0.847147 121.602913
40 121.602913 0.000119 -0.000089 -89.793175 -1.359789 0.847147 121.602913
[L_mid_hand01]
39 103.859421 1.038730 8.195221 130.544373 -67.584534 -38.866943 104.187431
40 103.859421 1.038730 8.195221 130.544373 -67.584534 -38.866943 104.187431
[L_mid_hand02]
39 105.572853 -4.139662 -10.864139 -168.923172 43.409309 -73.498886 106.211075
40 105.572853 -4.139662 -10.864139 -168.923172 43.409309 -73.498894 106.211075
[L_mid_hand03]
39 104.641464 17.579376 -3.913581 -6.012627 17.808178 74.893677 106.179977
40 104.641464 17.579376 -3.913581 -6.012627 17.808174 74.893669 106.179977
[null_rope02_connect]
39 328.732849 0.000179 -0.000119 -128.296875 50.972454 11.260739 328.732849
40 328.732849 0.000179 -0.000119 -132.518555 40.860584 0.752092 328.732849
[Rope2_Seg01]
39 0.000070 0.000027 0.000000 -156.075256 -34.813213 -42.480747 0.000075
40 0.000070 0.000023 0.000000 -107.046494 -29.152330 -54.333946 0.000074
[Rope2_Seg02]
39 139.999741 -0.000060 -0.000119 20.221945 -2.983577 5.875154 139.999756
40 139.999741 -0.000060 -0.000119 20.205065 2.490664 5.079595 139.999756
[Rope2_Seg03]
39 140.000107 0.000030 0.000000 50.696671 -1.107456 9.576597 140.000107
40 140.000107 0.000030 0.000000 18.773985 5.063814 4.839202 140.000107
[Rope2_Seg04]
39 139.999802 0.000000 -0.000060 43.971508 12.597774 12.244821 139.999802
40 139.999802 0.000000 -0.000060 13.856926 11.488242 2.969556 139.999802
[Rope2_Seg05]
39 139.999985 -0.000060 0.000119 11.417665 21.550934 0.658897 139.999985
40 139.999985 -0.000060 0.000119 8.836151 6.686325 3.460700 139.999985
[Rope2_Seg06]
39 139.999893 -0.000030 -0.000119 4.037171 0.626580 3.904347 139.999893
40 139.999893 -0.000030 -0.000119 9.487105 -3.220519 7.649282 139.999893
[Rope2_Seg07]
39 139.999893 0.000060 -0.000060 3.817275 -3.051368 4.950774 139.999893
40 139.999893 0.000060 -0.000060 8.085127 -0.035479 4.735420 139.999893
[Rope2_Seg09]
39 121.338966 0.000089 -0.000060 33.793236 -1.359788 -0.847141 121.338966
40 121.338966 0.000089 -0.000060 33.793236 -1.359788 -0.847141 121.338966
[R_mid_hand01]
39 104.680779 11.144459 -10.335981 -16.212063 45.237247 70.462852 105.778534
40 104.680779 11.144459 -10.335981 -16.212063 45.237247 70.462852 105.778534
[R_mid_hand02]
39 104.070427 2.443552 8.231699 49.067368 -67.749771 39.286453 104.424065
40 104.070427 2.443552 8.231699 49.067368 -67.749771 39.286453 104.424065
[R_mid_hand03]
39 106.028137 -11.221827 -5.996406 -177.101105 15.551026 -76.585571 106.788818
40 106.028137 -11.221827 -5.996406 -177.101105 15.551026 -76.585571 106.788818
[spine02]
39 129.756927 0.001550 0.000119 0.390495 -4.041648 -13.359468 129.756927
40 129.756927 0.001550 0.000119 0.384164 -4.042325 -13.272897 129.756927
[spine03]
39 78.613991 0.081737 -4.898993 1.915551 3.822631 16.761126 78.766525
40 78.613991 0.081737 -4.898993 1.911235 3.825236 16.699747 78.766525
[pelvis]
39 169.435242 0.051022 0.000000 -31.841417 3.563485 2.386448 169.435257
40 169.435242 0.051022 0.000000 -27.621822 3.438804 3.967289 169.435257
[null_rope03_connect]
39 -1.257226 -2.466202 137.391083 109.967491 -73.749664 -23.167913 137.418976
40 -1.257226 -2.466202 137.391083 97.965172 -75.227623 -13.151244 137.418976
[null_rope04_connect]
39 -1.259640 -2.480268 -137.844437 109.967491 -73.749664 -23.167913 137.872513
40 -1.259640 -2.480268 -137.844437 97.965172 -75.227623 -13.151244 137.872513
[Rope3_Seg01]
39 0.000000 0.000000 0.000000 16.695019 -0.504074 -67.878426 0.000000
40 0.000000 0.000000 0.000000 17.099403 1.824206 -70.148865 0.000000
[Rope3_Seg02]
39 139.999924 -0.000119 0.000060 -0.073282 0.794962 2.746334 139.999924
40 139.999924 -0.000119 0.000060 -0.072893 0.755536 2.949197 139.999924
[Rope3_Seg03]
39 139.999924 -0.000119 0.000119 0.251099 0.232216 -1.387614 139.999924
40 139.999924 -0.000119 0.000119 0.105358 0.214405 -0.087178 139.999924
[Rope3_Seg04]
39 139.999924 0.000119 0.000000 0.311018 0.080082 -3.371572 139.999924
40 139.999924 0.000119 0.000000 0.291142 -0.487842 -4.060884 139.999924
[Rope3_Seg05]
39 139.999924 -0.000238 0.000060 -16.369864 8.554921 54.908340 139.999924
40 139.999924 -0.000238 0.000060 -9.130993 8.647011 47.246796 139.999924
[Rope3_Seg06]
39 139.999893 -0.000119 -0.000060 -29.739321 -3.341112 18.320087 139.999893
40 139.999893 -0.000119 -0.000060 -26.296497 -0.493503 22.147463 139.999893
[Rope3_Seg07]
39 139.999771 0.000060 -0.000119 -12.847397 -3.648870 4.431839 139.999771
40 139.999771 0.000060 -0.000119 -14.262642 -3.108597 6.017202 139.999771
[Rope3_Seg08]
39 139.999985 -0.000060 0.000000 -6.338832 -2.259519 1.751833 139.999985
40 139.999985 -0.000060 0.000000 -7.731617 -2.218913 2.506782 139.999985
[Rope3_Seg09]
39 90.185997 -0.000179 -0.000060 89.793228 -1.359877 -0.847183 90.185997
40 90.185997 -0.000179 -0.000060 89.793228 -1.359877 -0.847183 90.185997
[R_rear_hand01]
39 103.366196 -6.073594 -10.757982 -177.714203 24.565960 -73.910950 104.101845
40 103.366196 -6.073594 -10.757982 -177.714203 24.565960 -73.910950 104.101845
[R_rear_hand02]
39 100.509819 12.039542 -7.992327 -12.874829 36.868488 72.167213 101.543350
40 100.509819 12.039542 -7.992327 -12.874829 36.868488 72.167213 101.543350
[R_rear_hand03]
39 101.539970 5.215704 5.435467 71.484581 -71.816628 21.513813 101.819031
40 101.539970 5.215704 5.435467 71.484581 -71.816628 21.513813 101.819031
[Rope4_Seg01]
39 0.000010 0.000007 -0.000027 -104.416245 -22.820456 -89.086784 0.000029
40 0.000010 0.000006 -0.000023 -101.385368 -14.070489 -91.148529 0.000026
[Rope4_Seg02]
39 139.999985 0.000060 0.000119 7.386900 -26.056114 0.752241 139.999985
40 139.999985 0.000060 0.000119 5.089697 -22.863144 1.224560 139.999985
[Rope4_Seg03]
39 139.999924 0.000000 -0.000238 15.949964 -21.174370 3.282191 139.999924
40 139.999924 0.000000 -0.000238 11.531910 -20.862310 2.653767 139.999924
[Rope4_Seg04]
39 139.999985 0.000000 0.000119 3.820736 -2.558274 1.371557 139.999985
40 139.999985 0.000000 0.000119 4.304270 -4.007100 1.678452 139.999985
[Rope4_Seg05]
39 139.999802 -0.000060 -0.000119 -13.276941 11.570784 -5.914566 139.999802
40 139.999802 -0.000060 -0.000119 -9.692023 12.154991 -4.282461 139.999802
[Rope4_Seg06]
39 139.999924 0.000000 0.000060 -8.579838 14.794336 -3.820048 139.999924
40 139.999924 0.000000 0.000060 -6.317139 14.827091 -2.724240 139.999924
[Rope4_Seg07]
39 139.999802 0.000000 0.000000 -2.558386 8.276494 -0.838174 139.999802
40 139.999802 0.000000 0.000000 -1.788580 8.018416 -0.500547 139.999802
[Rope4_Seg08]
39 139.999924 0.000000 0.000119 -2.752065 5.551897 -0.315061 139.999924
40 139.999924 0.000000 0.000119 -2.358062 5.332723 -0.167595 139.999924
[Rope4_Seg09]
39 90.185791 0.000060 0.000060 -135.617828 2.228885 0.850567 90.185791
40 90.185791 0.000060 0.000060 -135.617828 2.228885 0.850567 90.185791
[L_rear_hand01]
39 101.696655 -8.392275 -7.654577 -12.874829 -36.868488 107.832764 102.329041
40 101.696655 -8.392275 -7.654577 -12.874829 -36.868488 107.832764 102.329041
[L_rear_hand02]
39 102.726799 -1.568258 5.773216 71.484581 71.816628 158.486160 102.900848
40 102.726799 -1.568258 5.773216 71.484581 71.816628 158.486160 102.900848
[L_rear_hand03]
39 104.552910 9.721220 -10.420293 -177.714203 -24.565960 -106.089035 105.519653
40 104.552910 9.721220 -10.420293 -177.714203 -24.565960 -106.089035 105.519653
